<svg xmlns="http://www.w3.org/2000/svg" viewBox="0 0 256 209" width="32" height="32">
  <path fill="#1DA1F2" d="M256 24.222a104.8 104.8 0 0 1-29.847 8.197 52.47 52.47 0 0 0 22.958-28.933 104.82 104.82 0 0 1-33.18 12.683 52.435 52.435 0 0 0-89.347 47.835A148.87 148.87 0 0 1 17.83 9.61a52.434 52.434 0 0 0 16.224 69.9 52.273 52.273 0 0 1-23.754-6.558v.656a52.435 52.435 0 0 0 42.026 51.396 52.554 52.554 0 0 1-13.804 1.84c-3.377 0-6.668-.328-9.864-.937a52.431 52.431 0 0 0 48.996 36.428 104.968 104.968 0 0 1-64.878 22.386c-4.214 0-8.378-.245-12.482-.727A148.253 148.253 0 0 0 80.3 203.26c96.407 0 149.097-79.859 149.097-149.093 0-2.271-.05-4.532-.15-6.785A106.658 106.658 0 0 0 256 24.222z"/>
</svg>
